<svg width="200" height="26" viewBox="0 0 200 26" fill="none" xmlns="http://www.w3.org/2000/svg">
<g clip-path="url(#clip0_1_186)">
<g clip-path="url(#clip1_1_186)">
<path d="M8.76 8.214V10.16H3.888V12.176H8.27V14.038H3.888V16.068H8.914V18H1.704V8.214H8.76ZM12.8858 13.8V18H10.7858V10.468H12.8858V11.308C13.5205 10.664 14.2345 10.342 15.0278 10.342C15.8211 10.342 16.4838 10.622 17.0158 11.182C17.5571 11.742 17.8278 12.4887 17.8278 13.422V18H15.7278V13.744C15.7278 12.5867 15.3031 12.008 14.4538 12.008C14.0338 12.008 13.6651 12.162 13.3478 12.47C13.0398 12.7687 12.8858 13.212 12.8858 13.8ZM25.2052 14.08C25.2052 13.4733 25.0372 12.9973 24.7012 12.652C24.3652 12.3067 23.9499 12.134 23.4552 12.134C22.9605 12.134 22.5312 12.3067 22.1672 12.652C21.8125 12.9973 21.6352 13.4687 21.6352 14.066C21.6352 14.6633 21.8079 15.1487 22.1532 15.522C22.5079 15.886 22.9372 16.068 23.4412 16.068C23.9452 16.068 24.3652 15.886 24.7012 15.522C25.0372 15.158 25.2052 14.6773 25.2052 14.08ZM25.4992 16.726C24.8365 17.4633 24.0105 17.832 23.0212 17.832C22.0412 17.832 21.2105 17.5007 20.5292 16.838C19.8572 16.166 19.5212 15.2747 19.5212 14.164C19.5212 13.044 19.8665 12.1293 20.5572 11.42C21.2572 10.7013 22.0552 10.342 22.9512 10.342C23.8472 10.342 24.5892 10.7107 25.1772 11.448V10.454H27.2772V17.02C27.2772 17.692 27.1605 18.2893 26.9272 18.812C26.6939 19.3347 26.3812 19.7453 25.9892 20.044C25.2145 20.66 24.2999 20.968 23.2452 20.968C22.6852 20.968 22.1112 20.8747 21.5232 20.688C20.9445 20.5107 20.4359 20.254 19.9972 19.918L20.8092 18.336C21.4999 18.8587 22.2279 19.12 22.9932 19.12C23.7679 19.12 24.3792 18.9287 24.8272 18.546C25.2752 18.1633 25.4992 17.5567 25.4992 16.726ZM31.5651 18H29.4651V7.612H31.5651V18ZM35.853 18H33.753V10.468H35.853V18ZM33.921 9.516C33.6877 9.27333 33.571 8.97933 33.571 8.634C33.571 8.28867 33.6877 7.99933 33.921 7.766C34.1637 7.52333 34.4577 7.402 34.803 7.402C35.1483 7.402 35.4377 7.52333 35.671 7.766C35.9137 7.99933 36.035 8.28867 36.035 8.634C36.035 8.97933 35.9137 9.27333 35.671 9.516C35.4377 9.74933 35.1483 9.866 34.803 9.866C34.4577 9.866 34.1637 9.74933 33.921 9.516ZM43.7109 15.662C43.7109 16.3993 43.4355 16.992 42.8849 17.44C42.3435 17.888 41.6529 18.112 40.8129 18.112C40.2529 18.112 39.6695 18.014 39.0629 17.818C38.4562 17.6127 37.9102 17.314 37.4249 16.922L38.3489 15.606C39.1329 16.2127 39.9682 16.516 40.8549 16.516C41.1255 16.516 41.3402 16.4647 41.4989 16.362C41.6575 16.25 41.7369 16.1053 41.7369 15.928C41.7369 15.7507 41.6249 15.5873 41.4009 15.438C41.1862 15.2887 40.8689 15.1487 40.4489 15.018C40.0382 14.8873 39.7209 14.7753 39.4969 14.682C39.2822 14.5887 39.0349 14.4533 38.7549 14.276C38.1855 13.9213 37.9009 13.3987 37.9009 12.708C37.9009 12.008 38.1809 11.4387 38.7409 11C39.3009 10.5613 40.0242 10.342 40.9109 10.342C41.7975 10.342 42.6842 10.6407 43.5709 11.238L42.7869 12.638C42.1335 12.19 41.4802 11.966 40.8269 11.966C40.1829 11.966 39.8609 12.1433 39.8609 12.498C39.8609 12.694 39.9635 12.848 40.1689 12.96C40.3742 13.072 40.7149 13.2027 41.1909 13.352C41.6669 13.5013 42.0029 13.618 42.1989 13.702C42.4042 13.7767 42.6469 13.898 42.9269 14.066C43.4495 14.3833 43.7109 14.9153 43.7109 15.662ZM47.6143 13.94V18H45.5143V7.612H47.6143V11.308C48.249 10.664 48.9583 10.342 49.7423 10.342C50.5356 10.342 51.203 10.622 51.7443 11.182C52.2856 11.742 52.5563 12.4887 52.5563 13.422V18H50.4563V13.884C50.4563 12.7267 50.0316 12.148 49.1823 12.148C48.7623 12.148 48.3936 12.302 48.0763 12.61C47.7683 12.9087 47.6143 13.352 47.6143 13.94Z" fill="#23A6F0"/>
</g>
<path d="M149.5 13C149.5 5.8203 155.32 0 162.5 0H186.5C193.68 0 199.5 5.8203 199.5 13C199.5 20.1797 193.68 26 186.5 26H162.5C155.32 26 149.5 20.1797 149.5 13Z" fill="#252B42"/>
<path d="M170 11.3H164.275L162.5 5.75L160.725 11.3H155L159.625 14.725L157.875 20.25L162.5 16.825L167.125 20.25L165.35 14.7L170 11.3Z" fill="#FFCE31"/>
<path d="M179.544 13.604V12.068H180.888V13.604H181.896V14.888H180.888V17H179.544V14.888H175.944V13.64L179.028 8.612H180.576L177.54 13.604H179.544ZM183.611 16.832C183.443 16.656 183.359 16.444 183.359 16.196C183.359 15.948 183.443 15.74 183.611 15.572C183.787 15.396 183.999 15.308 184.247 15.308C184.495 15.308 184.707 15.396 184.883 15.572C185.059 15.74 185.147 15.948 185.147 16.196C185.147 16.444 185.059 16.656 184.883 16.832C184.707 17.008 184.495 17.096 184.247 17.096C183.999 17.096 183.787 17.008 183.611 16.832ZM189.322 15.824C190.066 15.824 190.614 15.572 190.966 15.068C191.318 14.564 191.498 13.884 191.506 13.028C191.306 13.252 191.018 13.464 190.642 13.664C190.266 13.856 189.85 13.952 189.394 13.952C188.642 13.952 188.01 13.704 187.498 13.208C186.994 12.704 186.742 12.04 186.742 11.216C186.742 10.384 187.014 9.716 187.558 9.212C188.11 8.708 188.802 8.456 189.634 8.456C190.978 8.456 191.906 9.056 192.418 10.256C192.706 10.944 192.85 11.72 192.85 12.584C192.85 13.448 192.758 14.168 192.574 14.744C192.39 15.32 192.138 15.776 191.818 16.112C191.194 16.768 190.426 17.096 189.514 17.096C188.61 17.096 187.79 16.812 187.054 16.244L187.762 15.2C187.946 15.36 188.19 15.504 188.494 15.632C188.806 15.76 189.082 15.824 189.322 15.824ZM189.574 12.704C190.062 12.704 190.466 12.572 190.786 12.308C191.114 12.036 191.278 11.688 191.278 11.264C191.278 10.832 191.122 10.464 190.81 10.16C190.498 9.848 190.106 9.692 189.634 9.692C189.17 9.692 188.786 9.832 188.482 10.112C188.178 10.384 188.026 10.736 188.026 11.168C188.026 11.6 188.162 11.964 188.434 12.26C188.714 12.556 189.094 12.704 189.574 12.704Z" fill="white"/>
</g>
<defs>
<clipPath id="clip0_1_186">
<rect width="199" height="26" fill="white" transform="translate(0.5)"/>
</clipPath>
<clipPath id="clip1_1_186">
<rect width="54" height="24" fill="white" transform="translate(0.5 1)"/>
</clipPath>
</defs>
</svg>
