<svg width="84" height="24" viewBox="0 0 84 24" fill="none" xmlns="http://www.w3.org/2000/svg">
<g clip-path="url(#clip0_1_195)">
<path d="M1 13.9C1.13261 13.9 1.25979 13.9527 1.35355 14.0464C1.44732 14.1402 1.5 14.2674 1.5 14.4V16.9C1.5 17.1652 1.60536 17.4196 1.79289 17.6071C1.98043 17.7946 2.23478 17.9 2.5 17.9H14.5C14.7652 17.9 15.0196 17.7946 15.2071 17.6071C15.3946 17.4196 15.5 17.1652 15.5 16.9V14.4C15.5 14.2674 15.5527 14.1402 15.6464 14.0464C15.7402 13.9527 15.8674 13.9 16 13.9C16.1326 13.9 16.2598 13.9527 16.3536 14.0464C16.4473 14.1402 16.5 14.2674 16.5 14.4V16.9C16.5 17.4304 16.2893 17.9391 15.9142 18.3142C15.5391 18.6893 15.0304 18.9 14.5 18.9H2.5C1.96957 18.9 1.46086 18.6893 1.08579 18.3142C0.710714 17.9391 0.5 17.4304 0.5 16.9V14.4C0.5 14.2674 0.552678 14.1402 0.646447 14.0464C0.740215 13.9527 0.867392 13.9 1 13.9Z" fill="#737373"/>
<path d="M8.14566 15.854C8.1921 15.9006 8.24728 15.9375 8.30802 15.9627C8.36877 15.9879 8.43389 16.0009 8.49966 16.0009C8.56542 16.0009 8.63054 15.9879 8.69129 15.9627C8.75203 15.9375 8.80721 15.9006 8.85366 15.854L11.8537 12.854C11.9475 12.7601 12.0003 12.6328 12.0003 12.5C12.0003 12.3672 11.9475 12.2399 11.8537 12.146C11.7598 12.0521 11.6324 11.9994 11.4997 11.9994C11.3669 11.9994 11.2395 12.0521 11.1457 12.146L8.99966 14.293V5.5C8.99966 5.36739 8.94698 5.24021 8.85321 5.14645C8.75944 5.05268 8.63226 5 8.49966 5C8.36705 5 8.23987 5.05268 8.1461 5.14645C8.05233 5.24021 7.99966 5.36739 7.99966 5.5V14.293L5.85366 12.146C5.75977 12.0521 5.63243 11.9994 5.49966 11.9994C5.36688 11.9994 5.23954 12.0521 5.14566 12.146C5.05177 12.2399 4.99902 12.3672 4.99902 12.5C4.99902 12.6328 5.05177 12.7601 5.14566 12.854L8.14566 15.854Z" fill="#737373"/>
</g>
<path d="M26.934 7.214H30.896V17H28.796V9.076H26.934V7.214ZM39.4305 7.214V9.104H35.5665V10.742C35.8558 10.658 36.1872 10.616 36.5605 10.616C37.5032 10.616 38.3152 10.9007 38.9965 11.47C39.6778 12.0393 40.0185 12.8093 40.0185 13.78C40.0185 14.7413 39.6638 15.5393 38.9545 16.174C38.2545 16.7993 37.3865 17.112 36.3505 17.112C35.0252 17.112 33.9192 16.622 33.0325 15.642L34.1805 14.046C34.2645 14.13 34.3765 14.2327 34.5165 14.354C34.6565 14.4753 34.9132 14.6387 35.2865 14.844C35.6598 15.04 36.0332 15.138 36.4065 15.138C36.7798 15.138 37.1112 15.026 37.4005 14.802C37.6898 14.578 37.8345 14.2467 37.8345 13.808C37.8345 13.3693 37.6758 13.0333 37.3585 12.8C37.0505 12.5573 36.6492 12.436 36.1545 12.436C35.6598 12.436 35.0858 12.6133 34.4325 12.968L33.5225 11.988V7.214H39.4305ZM49.1317 8.908C48.7677 8.908 48.4784 8.99667 48.2637 9.174C48.0584 9.342 47.9557 9.57067 47.9557 9.86C47.9557 10.14 48.0817 10.364 48.3337 10.532C48.5951 10.7 49.1877 10.9007 50.1117 11.134C51.0451 11.358 51.7684 11.6987 52.2817 12.156C52.7951 12.6133 53.0517 13.2807 53.0517 14.158C53.0517 15.0353 52.7204 15.7493 52.0577 16.3C51.4044 16.8413 50.5411 17.112 49.4677 17.112C47.9184 17.112 46.5231 16.538 45.2817 15.39L46.5837 13.794C47.6384 14.718 48.6137 15.18 49.5097 15.18C49.9111 15.18 50.2237 15.096 50.4477 14.928C50.6811 14.7507 50.7977 14.5173 50.7977 14.228C50.7977 13.9293 50.6764 13.696 50.4337 13.528C50.1911 13.3507 49.7104 13.1733 48.9917 12.996C47.8531 12.7253 47.0177 12.3753 46.4857 11.946C45.9631 11.5073 45.7017 10.826 45.7017 9.902C45.7017 8.96867 46.0331 8.25 46.6957 7.746C47.3677 7.242 48.2031 6.99 49.2017 6.99C49.8551 6.99 50.5084 7.102 51.1617 7.326C51.8151 7.55 52.3844 7.86733 52.8697 8.278L51.7637 9.874C50.9144 9.23 50.0371 8.908 49.1317 8.908ZM61.2975 17H59.3235V16.09C58.7821 16.7713 58.1101 17.112 57.3075 17.112C56.5141 17.112 55.8468 16.8833 55.3055 16.426C54.7641 15.9593 54.4935 15.3433 54.4935 14.578C54.4935 13.8033 54.7735 13.2247 55.3335 12.842C55.8935 12.4593 56.6588 12.268 57.6295 12.268H59.1975V12.226C59.1975 11.4233 58.7728 11.022 57.9235 11.022C57.5595 11.022 57.1721 11.0967 56.7615 11.246C56.3601 11.386 56.0195 11.5633 55.7395 11.778L54.8015 10.42C55.7908 9.70133 56.9201 9.342 58.1895 9.342C59.1041 9.342 59.8508 9.57067 60.4295 10.028C61.0081 10.4853 61.2975 11.2087 61.2975 12.198V17ZM59.1835 14.13V13.766H57.8675C57.0275 13.766 56.6075 14.0273 56.6075 14.55C56.6075 14.8207 56.7055 15.0307 56.9015 15.18C57.1068 15.32 57.3961 15.39 57.7695 15.39C58.1428 15.39 58.4695 15.278 58.7495 15.054C59.0388 14.8207 59.1835 14.5127 59.1835 14.13ZM65.512 17H63.412V6.612H65.512V17ZM74.2239 15.908C73.3745 16.7107 72.3759 17.112 71.2279 17.112C70.0892 17.112 69.1465 16.762 68.3999 16.062C67.6532 15.3527 67.2799 14.4053 67.2799 13.22C67.2799 12.0347 67.6579 11.092 68.4139 10.392C69.1792 9.692 70.0799 9.342 71.1159 9.342C72.1519 9.342 73.0292 9.65467 73.7479 10.28C74.4759 10.9053 74.8399 11.764 74.8399 12.856V13.976H69.3519C69.4172 14.3867 69.6319 14.7227 69.9959 14.984C70.3599 15.2453 70.7705 15.376 71.2279 15.376C71.9652 15.376 72.5719 15.1287 73.0479 14.634L74.2239 15.908ZM72.7119 12.478C72.6652 12.03 72.4972 11.6847 72.2079 11.442C71.9185 11.1993 71.5639 11.078 71.1439 11.078C70.7332 11.078 70.3552 11.204 70.0099 11.456C69.6645 11.708 69.4639 12.0487 69.4079 12.478H72.7119ZM82.2242 14.662C82.2242 15.3993 81.9488 15.992 81.3982 16.44C80.8568 16.888 80.1662 17.112 79.3262 17.112C78.7662 17.112 78.1828 17.014 77.5762 16.818C76.9695 16.6127 76.4235 16.314 75.9382 15.922L76.8622 14.606C77.6462 15.2127 78.4815 15.516 79.3682 15.516C79.6388 15.516 79.8535 15.4647 80.0122 15.362C80.1708 15.25 80.2502 15.1053 80.2502 14.928C80.2502 14.7507 80.1382 14.5873 79.9142 14.438C79.6995 14.2887 79.3822 14.1487 78.9622 14.018C78.5515 13.8873 78.2342 13.7753 78.0102 13.682C77.7955 13.5887 77.5482 13.4533 77.2682 13.276C76.6988 12.9213 76.4142 12.3987 76.4142 11.708C76.4142 11.008 76.6942 10.4387 77.2542 10C77.8142 9.56133 78.5375 9.342 79.4242 9.342C80.3108 9.342 81.1975 9.64067 82.0842 10.238L81.3002 11.638C80.6468 11.19 79.9935 10.966 79.3402 10.966C78.6962 10.966 78.3742 11.1433 78.3742 11.498C78.3742 11.694 78.4768 11.848 78.6822 11.96C78.8875 12.072 79.2282 12.2027 79.7042 12.352C80.1802 12.5013 80.5162 12.618 80.7122 12.702C80.9175 12.7767 81.1602 12.898 81.4402 13.066C81.9628 13.3833 82.2242 13.9153 82.2242 14.662Z" fill="#737373"/>
<defs>
<clipPath id="clip0_1_195">
<rect width="16" height="16" fill="white" transform="translate(0.5 4)"/>
</clipPath>
</defs>
</svg>
